<svg width="36" height="34" fill="none" xmlns="http://www.w3.org/2000/svg"><path d="M35.03 20.814C37.374 11.833 31.66 2.74 22.266.502c-9.387-2.24-18.901 3.227-21.244 12.2-2.343 8.98 3.37 18.072 12.765 20.312 9.388 2.239 18.902-3.22 21.245-12.2zm-9.267-6.447c-.247 1.634-1.195 2.43-2.462 2.701 1.73.861 2.606 2.176 1.769 4.455-1.036 2.829-3.506 3.076-6.79 2.486l-.804 3.052-1.928-.462.789-3.012c-.495-.12-1.005-.247-1.53-.375l-.79 3.02-1.928-.462.805-3.06c-.446-.111-.908-.223-1.37-.343L9.02 21.77l.957-2.104s1.41.359 1.402.335c.542.135.789-.207.877-.438l1.259-4.83.207.048a.975.975 0 00-.2-.055l.901-3.435c.016-.39-.12-.884-.9-1.068.031-.016-1.395-.334-1.395-.334l.51-1.96 2.654.629v.008c.398.096.812.191 1.227.27l.789-3.02 1.928.463-.773 2.964c.51.112 1.036.223 1.538.35l.773-2.932 1.928.463-.788 3.02c2.414.797 4.19 2 3.848 4.223z" fill="#fff"/><path d="M17.938 11.435l-.957 3.673c1.084.255 4.439 1.315 4.98-.765.559-2.175-2.94-2.653-4.023-2.908zM16.496 16.957l-1.06 4.048c1.307.31 5.323 1.538 5.92-.733.63-2.39-3.561-3.004-4.86-3.315z" fill="#fff"/></svg>