<svg width="29" height="29" fill="none" xmlns="http://www.w3.org/2000/svg"><g clip-path="url(#clip0)"><path d="M14.5 0C6.493 0 0 6.492 0 14.5c0 8.009 6.492 14.501 14.5 14.501 8.01 0 14.501-6.491 14.501-14.5C29 6.49 22.51 0 14.501 0zM9.597 20.89c-3.504 0-6.345-2.86-6.345-6.39 0-3.528 2.84-6.388 6.345-6.388 3.504 0 6.345 2.86 6.345 6.389 0 3.528-2.84 6.388-6.345 6.388zm10.133-.375c-1.752 0-3.172-2.694-3.172-6.014 0-3.321 1.42-6.014 3.172-6.014 1.752 0 3.172 2.692 3.172 6.014 0 3.32-1.42 6.014-3.172 6.014zm4.903-.626c-.616 0-1.115-2.412-1.115-5.388s.5-5.388 1.115-5.388c.616 0 1.117 2.412 1.117 5.388 0 2.974-.5 5.388-1.117 5.388z" fill="#fff"/></g><defs><clipPath id="clip0"><path fill="#fff" d="M0 0h29v29H0z"/></clipPath></defs></svg>