<svg width="23" height="31" fill="none" xmlns="http://www.w3.org/2000/svg"><path d="M11.966.797C5.792.829.78 5.602.764 11.507c0 1.179.199 2.358.59 3.474.294.765 1.155 1.171 1.976.932.788-.295 1.203-1.108.948-1.88a6.665 6.665 0 01-.438-2.726c.135-4.271 3.864-7.618 8.319-7.49 4.454.135 7.976 3.69 7.833 7.952-.128 3.993-3.419 7.236-7.586 7.483 0 0-1.57.096-2.351.183-.287.04-.574.096-.86.16a.11.11 0 01-.152 0c-.032-.04-.032-.088 0-.12l.247-1.267 1.482-6.359c.175-.797-.358-1.578-1.187-1.745-.829-.167-1.65.343-1.825 1.132 0 0-3.514 15.546-3.514 15.69-.2.757.279 1.522 1.068 1.72.008 0 .024 0 .032.009h.08c.788.199 1.593-.255 1.8-1.012 0-.008.008-.032.008-.04v-.064l.486-2.247c.335-1.554 1.65-2.757 3.3-3.004.334-.048 1.768-.144 1.768-.144 6.152-.59 10.654-5.825 10.033-11.713C22.262 5.06 17.608.94 11.966.797zM18 26.918c-1.005-.2-1.993.414-2.216 1.386 0 .008 0 .016-.008.032-.215.964.414 1.905 1.426 2.112h.048c.988.223 1.976-.35 2.215-1.291 0-.008 0-.016.008-.016v-.096c.176-.972-.478-1.912-1.474-2.127z" fill="#fff"/></svg>