<svg width="30" height="30" fill="none" xmlns="http://www.w3.org/2000/svg"><path d="M15 0C6.72 0 0 6.72 0 15c0 8.28 6.72 15 15 15 8.28 0 15-6.72 15-15 0-8.28-6.72-15-15-15zm6.42 14.78c-.52 3.25-1.08 6.81-1.08 6.81s-.09 1-.82 1.17c-.74.17-1.95-.61-2.17-.78-.17-.13-3.25-2.08-4.38-3.03-.3-.26-.65-.78.04-1.39 1.56-1.43 3.42-3.21 4.55-4.34.52-.52 1.04-1.73-1.13-.26-3.08 2.12-6.11 4.12-6.11 4.12s-.69.43-1.99.04-2.82-.91-2.82-.91-1.04-.65.74-1.34c0 0 7.5-3.08 10.1-4.16 1-.43 4.38-1.82 4.38-1.82s1.56-.61 1.43.87c-.05.6-.4 2.73-.74 5.02z" fill="#fff"/></svg>