<svg width="28" height="24" fill="none" xmlns="http://www.w3.org/2000/svg"><path d="M28 3.445c-1.027.455-2.135.77-3.302.91a5.758 5.758 0 002.532-3.173 11.923 11.923 0 01-3.652 1.4A5.7 5.7 0 0019.39.75c-3.71 0-6.428 3.465-5.6 7.058A16.34 16.34 0 011.948 1.8a5.764 5.764 0 001.774 7.677 5.827 5.827 0 01-2.602-.724c-.058 2.66 1.843 5.145 4.608 5.705a5.672 5.672 0 01-2.59.094 5.744 5.744 0 005.367 3.99A11.508 11.508 0 010 20.922 16.242 16.242 0 008.808 23.5c10.664 0 16.695-9.007 16.322-17.092 1.12-.805 2.1-1.808 2.87-2.963z" fill="#fff"/></svg>