<svg width="42" height="77" fill="none" xmlns="http://www.w3.org/2000/svg"><path d="M42 27.73a.617.617 0 00-.293-.533l-5.768-3.648a.57.57 0 00-.268-.087l-4.586-.36-5.56-8.287L20.938.435a.605.605 0 00-.61-.434.641.641 0 00-.573.471L16.28 15.51h-2.853a.608.608 0 00-.561.385l-2.964 7.283-6.853 1.464a.622.622 0 00-.415.31L.061 29.778a.822.822 0 00-.061.248v.174l4.11 20.67c.024.149.11.273.22.372l8.377 6.613 4.28 7.221 5.245 11.563c.11.236.341.373.585.36a.58.58 0 00.451-.297l.025.012 6.536-10.348 8.086-12.642a.55.55 0 00.085-.236v-.013l3.976-25.67h-.013c.025-.012.037-.037.037-.075zm-10.83-1.5l-4.097.855-3.902.832 3.402-3.933.5-.584.049-.05.098.063.975.695 2.976 2.121zm-1.646-3.264l.44.658.304.446-.67-.483-.976-.695-1.073-.77-.586-2.109-.402-1.464 2.963 4.417zm-9.073-20.05l3.94 12.345 1.963 7.097-.293.335-.5.583-.5.584-3.28 3.796-1.269-4.169-.195-.632-.195-.633-.841-2.755c0-.012-.013-.012-.025-.024-.012-.025-.012-.063-.024-.087l-1.805-3.313L20.45 2.916zM16.402 16.75l.537.993-1.476-.993h.94zm-5.61 7.506l.281-.694.28-.695.745-1.824 1.621-3.995 3.05 2.047.84.57-3.633 2.644-1.232.893-1.232.893-.939.683.22-.521zm3.684-.781l1.231-.893.878-.633 1.769-1.29.45 1.463.196.633.195.633 1.488 4.888H12.72l-2.464-1.736 4.22-3.065zm-10.903 2.32l5.768-1.228-.707 1.75a.611.611 0 00.22.744l3.341 2.345c.098.074.22.111.342.111h8.975c.037 0 .086 0 .122-.012l11.159-2.345a.61.61 0 00.439-.372.655.655 0 00-.061-.584l-1.208-1.799 3.452.273 4.78 3.015-6.17 3.586-19.147 1.03-13.341-2.68 2.036-3.834zm12.037 7.717l18.085-.968 1.5 10.013-8.61 20.15-5.67-6.217-5.305-22.978zm3.512 20.608l-7.512-9.962-9.586-13.164 12.305 2.481 4.793 20.645zM1.744 32.681l8.573 11.787-5.22 5.062L1.745 32.68zm3.902 18.015l5.403-5.236 8.146 10.807-5.841.533-7.708-6.104zm8.55 7.27l5.267-.47-2.073 5.855-3.195-5.384zm8.5 16.713l-4.5-9.926 2.402-6.799 5.487 6.018-3.39 10.707zm6.133-8.983l-4.012 6.365 2.5-7.903 6.695-6.551-5.183 8.09zm-.28-4.479l6.988-16.352 1.244 8.3-8.232 8.052zm8.878-11.886l-2.549-17.11 1.83-1.066 3.89-2.258-3.171 20.434z" fill="#fff"/></svg>