<svg width="35" height="35" fill="none" xmlns="http://www.w3.org/2000/svg"><circle cx="17.5" cy="17.5" r="15.5" fill="#8CFFB3" stroke="#8CFFB3" stroke-width="4"/><path fill-rule="evenodd" clip-rule="evenodd" d="M11.944 17.27c0 2.315 1.81 4.134 3.969 4.134h4.781a.972.972 0 01.7 1.649l-3.675 3.799L16.32 25.5l2.08-2.151h-2.488c-3.293 0-5.913-2.75-5.913-6.08v-4.704h1.944v4.704zM13.966 12.854a.973.973 0 01.196-1.055L17.837 8l1.397 1.352-2.08 2.15h2.489c3.293 0 5.912 2.752 5.912 6.08v4.705h-1.944v-4.705c0-2.315-1.809-4.135-3.968-4.135H14.86a.972.972 0 01-.895-.593z" fill="#070618"/></svg>