<svg width="108" height="34" fill="none" xmlns="http://www.w3.org/2000/svg"><g clip-path="url(#clip0)" fill="#DE5959"><path d="M12.826 16.889l-.28-.28c-.185-.185-.557-.092-.557.28v4.089a.4.4 0 00.372.372h4.09c.278 0 .464-.372.278-.558-.093-.093-.093-.372 0-.465l4.368-4.368c.093-.093.093-.371 0-.464l-.372-.372c-.186-.186-.093-.558.28-.558h4.088a.4.4 0 01.372.372v4.09c0 .278-.372.464-.558.278l-.278-.279c-.093-.093-.372-.093-.465 0l-7.342 7.342c-.093.093-.372.093-.465 0l-9.015-9.015c-.093-.093-.093-.371 0-.464L19.61 4.249c.093-.093.093-.372 0-.464L16.73.903c-.093-.092-.372-.092-.465 0L.094 16.89c-.094.093-.094.372 0 .464L16.17 33.432c.093.093.372.093.465 0l16.078-16.079c.093-.093.093-.371 0-.464l-9.48-9.48c-.092-.093-.371-.093-.464 0l-9.387 9.48a.593.593 0 01-.557 0zm74.257 4.089c-.372 0-.743.186-1.115.465-.28.278-.465.65-.465 1.022 0 .65.279 1.115.93 1.487.65.186 1.208.093 1.672-.372a1.54 1.54 0 00.465-1.115c0-.465-.186-.744-.465-1.115-.279-.279-.65-.372-1.022-.372zM62.64 9.361h-1.115a.931.931 0 00-.93.93v.65c-1.207-1.208-2.602-1.859-4.089-1.859-1.765 0-3.252.65-4.368 1.952-1.208 1.3-1.765 2.974-1.765 4.925 0 1.952.557 3.625 1.765 5.019 1.209 1.301 2.696 1.952 4.461 1.952 1.394 0 2.789-.558 3.997-1.766v1.208c0 .65.464 1.115 1.115 1.115h1.952V10.476c0-.65-.465-1.115-1.023-1.115zm-2.88 9.665c-.651.744-1.58 1.116-2.696 1.116-1.022 0-1.952-.372-2.602-1.209-.65-.743-1.023-1.765-1.023-3.067 0-1.208.372-2.137 1.023-2.974.743-.743 1.58-1.208 2.602-1.208 1.115 0 1.952.372 2.695 1.208.65.837 1.023 1.766 1.023 3.067 0 1.209-.28 2.23-1.023 3.067zm-9.387-7.435v-1.3a.931.931 0 00-.93-.93h-1.208a.931.931 0 00-.93.93v.557C46.19 9.64 44.89 8.989 43.217 8.989c-1.858 0-3.438.744-4.554 2.138-1.022 1.3-1.58 2.974-1.58 4.832 0 1.952.558 3.625 1.766 4.926 1.116 1.301 2.602 1.952 4.368 1.952 1.58 0 2.974-.65 4.182-1.859v1.859c0 2.695-1.115 4.089-3.345 4.089-1.208 0-2.138-.372-2.695-1.208-.186-.186-.28-.465-.372-.744-.186-.464-.558-.743-1.022-.743h-1.116c-.557 0-1.022.557-.836 1.115.279 1.208.93 2.138 1.858 2.881 1.116.93 2.603 1.394 4.276 1.394 2.044 0 3.717-.65 4.832-2.044.651-.744 1.023-1.58 1.302-2.51.093-.372.093-.743.185-1.208 0-.465.093-1.022.093-1.673v-1.858c-.836-1.209-1.3-2.696-1.3-4.369-.187-1.765.278-3.16 1.114-4.368zm-3.81 7.25c-.652.836-1.58 1.3-2.696 1.3-1.115 0-2.045-.371-2.695-1.208-.558-.743-.93-1.765-.93-2.88 0-1.209.28-2.231.93-2.975.65-.836 1.58-1.3 2.695-1.3 1.115 0 1.952.37 2.602 1.207.65.744 1.022 1.766 1.022 3.067a4.566 4.566 0 01-.929 2.788zm28.903-9.48h-6.227V5.55a.931.931 0 00-.93-.93h-1.208a.931.931 0 00-.929.93v3.81h-1.301v2.788h1.301v11.245h1.766a1.27 1.27 0 001.3-1.3v-9.852h3.068c.279-.465.558-.93.93-1.301.557-.744 1.393-1.208 2.23-1.58zm15.427-4.74c-.557 0-1.022.186-1.394.558-.371.371-.557.836-.557 1.394 0 .557.186 1.022.557 1.394.372.371.837.557 1.394.557.558 0 1.023-.186 1.394-.557.372-.372.558-.837.558-1.394 0-.558-.186-1.023-.558-1.394-.371-.372-.836-.558-1.394-.558zm.651 6.227h-1.115c-.558 0-1.023.464-1.023 1.022v9.573c.186.278.372.557.372.93 0 .37-.093.65-.372.928v.651h1.952c.558 0 1.115-.465 1.115-1.115v-11.06c-.093-.464-.464-.93-.929-.93zm14.127 1.859c-1.395-1.302-2.974-2.045-4.926-2.045s-3.625.65-4.926 1.952c-1.394 1.3-2.044 2.974-2.044 4.832 0 2.045.65 3.625 1.951 5.019 1.301 1.301 2.974 2.045 4.926 2.045s3.624-.65 5.019-1.952c1.394-1.301 2.044-2.974 2.044-4.926 0-1.951-.65-3.624-2.044-4.925zm-2.138 7.992c-.744.744-1.673 1.115-2.788 1.115-1.208 0-2.138-.371-2.881-1.115-.744-.743-1.023-1.766-1.023-3.067 0-1.208.372-2.23 1.116-2.974.743-.743 1.673-1.115 2.788-1.115 1.208 0 2.137.372 2.788 1.115.743.744 1.022 1.766 1.022 3.067.093 1.208-.279 2.23-1.022 2.974z"/><path d="M76.581 20.142c-.65-.65-.93-1.487-1.022-2.603h8.643a.733.733 0 00.743-.743c0-2.138-.557-3.81-1.672-5.019-1.116-1.208-2.603-1.859-4.554-1.859-1.86 0-3.44.651-4.554 1.86-1.116 1.3-1.673 2.973-1.673 5.018 0 2.044.557 3.717 1.765 5.018.837.837 1.86 1.488 3.067 1.673.465.093 1.023.186 1.58.186 2.138 0 3.997.093 6.134.093v-.279c-.371-.185-.464-.464-.464-.929 0-.372.093-.744.371-1.022v-.372c-1.672 0-5.762-.093-5.948-.093-1.022 0-1.766-.279-2.416-.93zm-.372-6.041c.186-.28.372-.558.65-.744.28-.186.558-.372.837-.464a3.34 3.34 0 011.023-.186c1.58 0 2.602.836 3.067 2.416h-6.041c.093-.372.278-.743.464-1.022z"/></g><defs><clipPath id="clip0"><path fill="#fff" transform="translate(0 .718)" d="M0 0h107.715v32.807H0z"/></clipPath></defs></svg>