<svg width="116" height="28" fill="none" xmlns="http://www.w3.org/2000/svg"><g clip-path="url(#clip0)" fill="#23AF91"><path d="M90.615 13.937v-1.952c0-.557-.093-1.115-.186-1.672a9.14 9.14 0 00-.465-1.488c-.186-.464-.558-.929-.93-1.3-.557-.558-1.208-1.023-1.858-1.302-.744-.279-1.58-.464-2.417-.464-.836 0-1.672.185-2.416.464-.743.279-1.301.744-1.859 1.301-.371.372-.65.837-.93 1.301-.185.465-.37.93-.464 1.488-.093.557-.186 1.115-.186 1.672v3.904c0 .557.093 1.115.186 1.673.093.464.279 1.022.465 1.487.186.464.557.929.93 1.3.557.558 1.207 1.023 1.858 1.302.743.279 1.58.465 2.416.465.837 0 1.673-.186 2.417-.465.743-.279 1.3-.744 1.858-1.301.372-.372.651-.837.93-1.301.186-.465.372-.93.465-1.487.093-.558.186-1.116.186-1.673v-1.952zm-3.067 0v1.859c0 .372-.093.836-.093 1.208 0 .279-.093.558-.28.743-.092.186-.185.372-.371.558-.186.279-.558.465-.836.65-.372.187-.744.187-1.116.187-.371 0-.743-.093-1.115-.186s-.65-.372-.836-.65c-.186-.187-.28-.373-.372-.559-.093-.278-.186-.464-.186-.743-.093-.372-.093-.836-.093-1.208v-1.859-1.859c0-.371.093-.836.093-1.208 0-.279.093-.557.186-.743.093-.186.186-.372.372-.558.186-.279.464-.558.743-.65.372-.186.744-.28 1.115-.186.372 0 .744.092 1.116.185.278.186.557.372.836.651.186.186.279.372.372.558.093.278.186.464.279.743.093.372.093.837.093 1.208.093.465.093 1.116.093 1.86zM115.15 6.316c0-.186-.093-.279-.279-.279h-2.509c-.186 0-.279.093-.279.28v9.386l-6.227-9.573c0-.093-.093-.093-.186-.093h-2.323c-.186 0-.279.093-.279.28v15.241c0 .186.093.279.279.279h2.509c.186 0 .279-.093.279-.279v-9.387l6.227 9.573c0 .093.093.093.186.093h2.323c.186 0 .279-.093.279-.279V6.316zM98.142 6.316c0-.186-.093-.279-.279-.279h-2.509c-.186 0-.279.093-.279.28v15.241c0 .186.093.279.279.279h2.51c.185 0 .278-.093.278-.279V6.316zM67.751 13.937v-1.859c0-.371.093-.836.093-1.208.28-1.394 1.302-2.138 2.603-2.138.836 0 1.673.372 2.137 1.023.186.371.372.743.465 1.115 0 0 0 .093.093.093h3.067s.093 0 .093-.093C75.93 9.011 75 7.338 73.235 6.502a6.667 6.667 0 00-2.695-.558c-1.673 0-3.067.558-4.276 1.766-.65.65-1.115 1.487-1.3 2.324-.186.929-.28 2.23-.28 3.903 0 1.766.094 3.067.28 3.903.185.93.65 1.766 1.3 2.324a5.966 5.966 0 004.276 1.766c.929 0 1.858-.186 2.695-.558 1.766-.836 2.695-2.51 3.067-4.368 0 0 0-.093-.093-.093h-2.974s-.093 0-.093.093c-.093.372-.279.743-.465 1.115-.465.744-1.3 1.023-2.137 1.023-1.302 0-2.324-.837-2.603-2.138-.093-.372-.093-.744-.093-1.208-.093-.465-.093-1.115-.093-1.859zM36.246 6.316c0-.186-.093-.279-.28-.279h-2.508c-.186 0-.28.093-.28.28v15.241c0 .186.094.279.28.279h2.509c.186 0 .279-.093.279-.279v-4.461l2.044-2.416 4.182 7.063c0 .093.093.093.186.093h3.067c.186 0 .186-.093.093-.186l-5.483-9.294 5.019-6.04c.093-.094.093-.28-.093-.28h-3.346s-.093 0-.093.093l-5.576 6.599V6.316zM54.74 19.235c-1.394 0-2.695-1.302-2.695-2.881V6.316c0-.186-.093-.279-.279-.279h-2.51c-.185 0-.278.093-.278.28v9.944c0 3.438 2.602 5.669 5.762 5.669 3.16 0 5.762-2.23 5.762-5.67V6.316c0-.186-.093-.279-.279-.279h-2.509c-.186 0-.279.093-.279.28v9.944c0 1.58-1.3 2.974-2.695 2.974z"/><path fill-rule="evenodd" clip-rule="evenodd" d="M7.714 13.937l7.9 7.9 4.925-4.926c.93-.836 2.23-.743 3.067.093.837.837.837 2.23.093 3.067l-6.598 6.599c-.837.836-2.324.836-3.16 0l-9.48-9.573v5.67c0 1.208-1.022 2.23-2.23 2.23-1.209 0-2.231-1.022-2.231-2.23V5.107c0-1.208 1.022-2.23 2.23-2.23 1.209 0 2.231 1.022 2.231 2.23v5.67l9.48-9.48c.836-.837 2.323-.837 3.16 0l6.598 6.598c.837.93.744 2.23-.093 3.067-.836.837-2.23.837-3.067.093l-4.925-4.925-7.9 7.806zm7.807-2.23c-.93 0-1.766.557-2.045 1.394-.279.836-.186 1.766.465 2.416.65.65 1.58.837 2.416.465.837-.372 1.394-1.208 1.394-2.045 0-.557-.279-1.208-.65-1.58-.372-.464-.93-.65-1.58-.65z"/></g><defs><clipPath id="clip0"><path fill="#fff" transform="translate(0 .647)" d="M0 0h115.15v26.58H0z"/></clipPath></defs></svg>