<svg width="122" height="31" fill="none" xmlns="http://www.w3.org/2000/svg"><g clip-path="url(#clip0)"><path d="M10.381 6.877c-.372-.093-.372-.093-.186-.093.28-.093 1.023 0 1.487.093 1.116.28 2.138.93 3.253 2.138l.279.372.372-.093c1.766-.28 3.531-.093 5.018.65.372.186 1.023.558 1.116.65 0 0 .093.28.093.466.093.743.093 1.3-.186 1.672-.093.28-.093.28-.093.465a.511.511 0 00.464.279c.372 0 .744-.558.93-1.394l.093-.372.186.186c.836.93 1.394 2.137 1.487 2.974v.279l-.186-.186a6.763 6.763 0 00-.744-.837c-.557-.371-1.115-.464-2.602-.557-1.301-.093-2.138-.186-2.881-.465-1.301-.465-1.952-.93-3.439-2.974a11.725 11.725 0 00-1.487-1.766c-.836-.836-1.766-1.3-2.974-1.487z" fill="#FF007A"/><path d="M22.091 8.922c0-.558.093-1.022.279-1.301.093-.186.093-.279.186-.279 0 0 0 .093-.093.279-.186.279-.186.743-.093 1.301.093.743.186.836.93 1.58.371.372.743.836.929 1.022l.278.372-.278-.372a21.258 21.258 0 01-1.209-1.022c-.093-.093-.093-.093-.186 0-.092.093-.092.186-.092.65 0 .744-.093 1.116-.372 1.58-.093.28-.186.186 0-.092.093-.186.093-.28.093-.93 0-1.394-.186-1.673-1.116-2.23a8.374 8.374 0 00-.836-.465c-.279-.093-.465-.186-.465-.186s.93.279 1.302.372c.557.186.65.279.743.186-.093 0 0-.093 0-.465zM11.032 11.246c-.65-.93-1.116-2.324-1.023-3.346v-.372h.186c.28.093.744.279 1.023.372.65.372.929.93 1.208 2.137.093.372.186.837.279.93.092.279.371.743.65 1.115.186.279.093.372-.372.372-.65 0-1.394-.558-1.951-1.208zM21.255 18.03c-3.067-1.208-4.182-2.324-4.182-4.182v-.465s.093.093.279.186c.65.465 1.3.743 3.252 1.022 1.116.186 1.766.28 2.417.465 1.858.65 3.067 1.952 3.345 3.624.093.465 0 1.488-.092 1.952-.093.372-.465 1.115-.465 1.115s-.093-.093-.093-.185c0-.651-.372-1.302-.93-1.766-.557-.465-1.394-.93-3.531-1.766zM19.117 18.588c0-.28-.093-.558-.186-.651l-.093-.279.186.186c.186.279.372.558.465.93.093.278.093.371.093.836 0 .465 0 .558-.093.836-.186.465-.372.744-.65 1.023-.558.557-1.302.929-2.324 1.022-.186 0-.744.093-1.208.093-1.208.093-1.952.186-2.695.465-.093 0-.186.093-.186.093s.464-.28.836-.465c.558-.279 1.115-.372 2.324-.65.65-.094 1.208-.187 1.394-.28 1.58-.464 2.323-1.672 2.137-3.16zM20.511 21.097c-.371-.93-.464-1.766-.278-2.51 0-.093.093-.185.093-.185s.093.092.185.092c.186.093.558.372 1.58.93 1.301.65 1.952 1.208 2.51 1.859.464.557.743 1.115.836 1.858.093.465 0 1.487-.093 1.86-.372 1.3-1.115 2.416-2.23 2.973-.186.093-.28.186-.372.186l.186-.372c.371-.836.464-1.58.186-2.416-.186-.558-.558-1.208-1.209-2.23-.929-1.302-1.208-1.58-1.394-2.045zM8.8 25.837c1.116-.93 2.603-1.673 3.904-1.859.558-.093 1.487-.093 2.045.093.836.186 1.58.65 1.952 1.301.371.558.557 1.022.743 2.138.093.464.186.836.186.93.093.557.372 1.021.65 1.207.465.372 1.302.372 2.138.093.186-.093.279-.093.279-.093s-.372.28-.65.465a2.474 2.474 0 01-1.116.279c-.743 0-1.394-.372-1.951-1.208-.093-.186-.372-.651-.558-1.023-.558-1.3-.837-1.673-1.487-2.044-.558-.372-1.301-.465-1.859-.186-.743.372-.93 1.3-.372 1.858.186.28.558.465.93.465.557.093 1.115-.372 1.115-.93 0-.37-.186-.557-.558-.743-.464-.186-1.022 0-1.022.558 0 .186.093.372.279.465.093.093.093.093 0 .093-.465-.093-.558-.651-.186-1.023.465-.464 1.394-.279 1.673.372.093.279.186.743 0 1.022-.279.65-1.023 1.023-1.766.837-.558-.186-.744-.28-1.394-.93-1.115-1.115-1.487-1.3-3.067-1.58l-.279-.092.372-.465z" fill="#FF007A"/><path fill-rule="evenodd" clip-rule="evenodd" d="M.623.65c3.624 4.462 9.293 11.339 9.572 11.71.279.28.186.651-.279.837-.186.093-.65.279-.929.279s-.558-.093-.744-.372c-.092-.093-.743-1.022-2.137-3.16C5.084 8.271 4.154 6.97 4.154 6.97c-.093 0-.093 0 1.859 3.346 1.208 2.138 1.58 2.881 1.58 2.974 0 .186-.093.279-.279.558-.465.557-.65 1.022-.743 2.137-.186 1.209-.558 2.138-1.766 3.625-.744.836-.837 1.022-1.023 1.394-.185.465-.278.65-.278 1.208 0 .558 0 .93.186 1.58.185.465.371.836.743 1.487.372.558.558 1.022.558 1.115 0 .093 0 .093.557 0 1.301-.278 2.417-.836 3.067-1.487.372-.371.465-.65.465-1.208 0-.372 0-.465-.093-.65-.186-.372-.465-.651-1.115-1.023-.837-.557-1.208-1.022-1.301-1.673-.093-.557 0-.929.464-1.858.465-1.023.65-1.487.65-2.51.094-.65.094-.93.28-1.115.186-.186.371-.279.836-.372.837-.093 1.301-.278 1.766-.743.372-.372.557-.65.557-1.116v-.371l-.092-.186C10.288 11.245.158 0 .065 0c0 0 .279.279.558.65zm4.74 22.306a.605.605 0 00-.186-.837c-.28-.186-.651-.093-.651.186 0 .093 0 .093.093.186.186.093.186.186.093.372s-.093.372 0 .464c.279 0 .557-.093.65-.371zM11.775 14.684c-.371.093-.743.558-.836.93-.093.278 0 .743.093.836.186.186.372.279.743.279.837 0 1.58-.372 1.673-.837.093-.371-.279-.929-.743-1.115-.186-.093-.744-.186-.93-.093zm1.023.837c.093-.186.093-.372-.186-.558-.465-.279-1.023-.093-1.023.372 0 .186.372.464.651.464.186-.092.465-.185.558-.278z" fill="#FF007A"/><path d="M34.266 18.495v-8.55h2.045v8.55c0 .743.093 1.394.371 2.044.28.65.651 1.208 1.116 1.673a5.275 5.275 0 001.673 1.115c.65.28 1.3.372 2.044.372s1.394-.093 2.045-.372a5.273 5.273 0 001.673-1.115 5.274 5.274 0 001.115-1.673c.279-.65.372-1.3.372-2.044v-8.55h2.044v8.55a7.575 7.575 0 01-.557 2.88c-.372.837-.837 1.674-1.487 2.324-.65.65-1.394 1.115-2.324 1.487-.836.372-1.858.558-2.88.558a7.572 7.572 0 01-2.882-.558c-.836-.372-1.673-.836-2.323-1.487-.65-.65-1.115-1.394-1.487-2.323a7.575 7.575 0 01-.558-2.881zM51.831 25.744V14.405h1.86v1.487c.464-.65 1.022-1.115 1.672-1.394.65-.279 1.394-.465 2.045-.465.743 0 1.394.093 1.859.372.557.279 1.022.558 1.3 1.023.373.464.651.929.744 1.58.186.65.279 1.3.279 1.951v6.599h-1.952v-6.692c0-1.022-.279-1.766-.743-2.23-.465-.558-1.115-.744-1.952-.744-.65 0-1.208.093-1.58.372a3.314 3.314 0 00-1.022.93c-.279.371-.465.836-.558 1.393-.093.558-.186 1.116-.186 1.766v5.298h-1.766v.093zM64.378 11.152c0-.464.186-.836.465-1.115a1.54 1.54 0 011.115-.464c.465 0 .836.185 1.115.464s.465.65.465 1.115c0 .465-.186.837-.465 1.116-.279.278-.65.464-1.115.464a1.54 1.54 0 01-1.115-.464 1.54 1.54 0 01-.465-1.116zm.65 14.592V14.405h1.952v11.246h-1.952v.093zM68.746 23.327l1.58-1.022c.372.744.837 1.208 1.487 1.487.65.279 1.301.372 1.952.372.743 0 1.3-.093 1.766-.372.371-.279.65-.65.65-1.208a1.75 1.75 0 00-.186-.744 1.12 1.12 0 00-.464-.464c-.186-.093-.465-.186-.837-.28-.279-.092-.65-.185-1.022-.278-.465-.093-.93-.186-1.487-.372-.558-.186-.93-.372-1.394-.557-.372-.28-.744-.558-1.023-.93-.278-.372-.371-.93-.371-1.487 0-1.022.371-1.766 1.115-2.416.743-.65 1.766-.93 3.067-.93 1.115 0 2.045.186 2.788.651.743.465 1.301 1.022 1.673 1.766l-1.58 1.115c-.279-.465-.558-.836-1.022-1.208-.465-.279-1.116-.465-1.86-.465-.65 0-1.114.093-1.58.372-.464.279-.65.558-.65 1.022 0 .28.093.465.186.65.093.187.279.28.558.465.279.093.558.28.836.28.28.092.65.185 1.023.278.464.093.929.186 1.394.372.464.093.93.279 1.3.558.373.278.744.557.93.929.279.372.372.93.372 1.58 0 .558-.093 1.115-.372 1.58-.186.464-.557.836-.93 1.115-.37.279-.836.465-1.393.65-.558.094-1.115.187-1.673.187s-1.022-.093-1.58-.186c-.465-.093-.93-.28-1.394-.465-.465-.186-.837-.465-1.208-.837a7.081 7.081 0 01-.65-1.208zM78.504 14.405h2.23l3.254 8.365 3.438-8.365h1.394l3.44 8.365 3.16-8.365h2.23l-4.647 11.246h-1.487l-3.439-7.993-3.439 8.086h-1.487l-4.647-11.339zM98.3 22.49c0-.557.093-1.021.28-1.393.185-.372.464-.744.743-1.023.371-.278.743-.557 1.115-.743.465-.186.929-.279 1.487-.372l3.16-.372c.464 0 .743-.278.743-.557v-.279c0-.558-.186-1.022-.65-1.301-.372-.372-1.023-.465-1.859-.465-.744 0-1.394.186-1.952.465-.557.279-.836.836-.929 1.58l-1.766-.93c.186-.836.65-1.487 1.394-2.044.744-.558 1.766-.744 3.16-.744 1.58 0 2.695.372 3.439 1.116.743.743 1.115 1.765 1.115 3.16v7.341h-1.952v-1.765a3.97 3.97 0 01-1.487 1.3c-.65.28-1.394.466-2.137.466-.651 0-1.209-.093-1.673-.28-.465-.185-.837-.464-1.208-.743a3.343 3.343 0 01-.744-1.115c-.186-.372-.279-.837-.279-1.301zm2.045 0c0 .466.186.837.558 1.209.371.279.836.465 1.58.465.557 0 1.022-.093 1.487-.28.464-.185.743-.37 1.115-.65.279-.279.557-.557.65-.93.186-.37.186-.743.186-1.021v-.837l-3.717.465c-.651.093-1.116.279-1.394.557-.372.186-.465.558-.465 1.023zM110.475 30.205v-15.8h1.952v1.58c.464-.557.929-1.022 1.58-1.394.65-.372 1.487-.558 2.323-.558.744 0 1.487.186 2.138.465.65.279 1.208.65 1.766 1.208.464.558.836 1.116 1.115 1.86.279.743.465 1.579.465 2.416 0 .836-.186 1.765-.465 2.416-.279.743-.651 1.394-1.115 1.859-.465.464-1.023.929-1.766 1.208-.651.279-1.394.465-2.138.465-.929 0-1.673-.186-2.323-.558a6.087 6.087 0 01-1.673-1.394v6.134h-1.859v.093zm1.766-10.13c0 1.208.372 2.23 1.022 2.973.651.744 1.58 1.116 2.788 1.116.558 0 1.116-.093 1.58-.28.465-.185.837-.464 1.209-.836a5.96 5.96 0 00.743-1.3c.186-.465.279-1.023.279-1.674a5.26 5.26 0 00-.279-1.673 5.96 5.96 0 00-.743-1.3c-.279-.372-.744-.651-1.209-.837-.464-.186-1.022-.279-1.58-.279-1.115 0-2.044.372-2.788 1.115-.65.744-1.022 1.766-1.022 2.974z" fill="#fff"/></g><defs><clipPath id="clip0"><path fill="#fff" transform="translate(.065)" d="M0 0h121.749v30.391H0z"/></clipPath></defs></svg>