<svg width="54" height="79" fill="none" xmlns="http://www.w3.org/2000/svg"><path d="M27.2 77L3.576 59.404l2.27-41.263L1 10.405 2.059 4.49l2.12-2.58L10.844 1l4.846 4.853 11.36-1.97 11.056 2.124L43.406 1l6.665.759 1.97 3.034.908 5.763-4.848 7.89 2.12 40.804L27.202 77z" fill="#070618"/><path d="M26.945 3.8l-11.23 1.934L10.683 1l-6.716.864L2.031 4.31 1 10.373l4.78 7.873L4.68 36.821 3.585 59.005 26.975 77l-13.67-21.219-1.46-12.514 6.027-5.114 1.843 2.247 2.226-4.549 1.37-2.905-1.37-8.606" stroke="#82E8FF" stroke-width=".5" stroke-miterlimit="10"/><path d="M3.886 1.962l6.545.767 3.398 4.234 7.374 9.873-8.331 6.29-7.184-4.873 2.014-3.656L3.886 8.34l1.125-2.532 7.533 2.73 1.285-1.575 1.734-1.155M26.975 16.392l-4.993.52-1.741 5.253M3.886 58.721l9.62-2.886" stroke="#82E8FF" stroke-width=".5" stroke-miterlimit="10"/><path d="M7.734 14.468l2.008-4.86 2.802-.912M1 10.62l2.906-1.924 5.752 1.067M11.582 43.33l8.015.751 7.378 8.868M26.975 34.328l-2.744.343-1.104-1.611 3.848-1.275M26.975 38.981v2.852L21.8 44.291l-1.56-3.75m6.734-1.56l-2.409-4.31-2.252 1.181 4.66 3.13zM20.24 44.291L26.976 77" stroke="#82E8FF" stroke-width=".5" stroke-miterlimit="10"/><path d="M27.444 47.177l3.918-.888 3.378-2.067 1.855-5.894-4.092-13.835-4.834-2.328-5.258 2.328-4.095 13.835 1.855 5.894 3.379 2.067 3.894.888zM50.063 1.962l-6.544.767-3.398 4.234-7.374 9.875 8.339 6.289 7.176-4.874-2.014-3.657 3.816-6.258-1.125-2.532-7.534 2.73-1.284-1.575-1.734-1.155" stroke="#82E8FF" stroke-width=".5" stroke-miterlimit="10"/><path d="M38.033 21.203l-3.754.908-2.494 2.321 8.97-1.192 1.157 20.09 7.19-6.435M50.064 58.721l-9.62-2.886M46.215 14.468l-2.008-4.86-2.802-.912M52.95 10.62l-2.907-1.924-5.752 1.067M41.405 43.33l-7.518.77-6.912 9.097L26.982 77M26.975 34.302l2.737.369 1.11-1.734-3.847-1.372v-9.4M26.975 38.981v2.852l5.912 2.458 1.784-3.75m-7.696-1.56l2.752-4.31 2.574 1.181-5.326 3.13zM34.67 44.291L26.976 77M21.203 17.354l-15.393.963" stroke="#82E8FF" stroke-width=".5" stroke-miterlimit="10"/><path d="M31.988 24.355l-1.371 8.614 1.371 2.907 2.228 4.553 1.845-2.249 6.033 5.118-1.462 12.525L26.98 77l23.382-17.947-1.095-22.203-1.102-18.592 4.784-7.88-1.034-6.066-1.938-2.447L43.254 1l-5.039 4.736-11.24-1.937v12.525l5.557.513 1.938 5.194M13.204 23.24l8.96 1.192-2.494-2.321-3.753-.909m-2.713 2.038L4.848 36.895l7.188 6.434 1.168-20.089zM41.405 23.127L49.1 36.595" stroke="#82E8FF" stroke-width=".5" stroke-miterlimit="10"/><path d="M48.14 18.673l-15.727-1.319-5.392 4.81-5.818-4.81M14.468 6.772l12.976 4.81 12.999-4.81" stroke="#82E8FF" stroke-width=".5" stroke-miterlimit="10"/></svg>