<svg width="87" height="81" fill="none" xmlns="http://www.w3.org/2000/svg"><path d="M43.293 80h-.819l-19.55-22.736 2.208-8.978.735-15.075-4.09.906-7.688-2.884-2.292-2.719 4.417-4.364 4.828-1.568-8.507-4.859-7.936-6.591L1 1l13.416 10.791 9.898-.165L35.44 10.31l7.69 2.716 8.18-2.8 10.88 1.565 9.98-.081L85.586 1.084l-3.682 10.132-7.77 6.753-8.51 4.613 4.992 1.814 4.17 3.953-2.616 3.049-7.281 2.635-4.01-.576.819 15.159 1.964 8.813-19.47 22.49-.9.081z" fill="#070618"/><path d="M85.586 1l-3.192 9.576M28.93 28.131v-6.384l-7.98.765M43.293 56.859l-7.328-2.555-3.046-6.223M32.92 48.08l-2.22-4.895-1.696-15.054-3.267 5.264" stroke="#8EFBE6" stroke-width=".5" stroke-miterlimit="10"/><path d="M43.293 69.626L31.046 56.473l-3.712-13.788 1.614-14.638 4.326-1.512M38.505 38.505h4.788" stroke="#8EFBE6" stroke-width=".5" stroke-miterlimit="10"/><path d="M43.188 53.667L36.623 52.2l-2.358-4.519 3.91-9.33-5.025-11.595 3.348-1.584 6.69-2.542-9.854.708-4.521-1.643-.682-5.86 15.162-2.865M4.192 10.576l10.374.798M43.293 22.546v34.313" stroke="#8EFBE6" stroke-width=".5" stroke-miterlimit="10"/><path d="M28.93 21.747l-11.684 4.664-3.478 3.316" stroke="#8EFBE6" stroke-width=".5" stroke-miterlimit="10"/><path d="M44.09 80h-1.567L23.046 57.295l1.843-8.122 1.101-15.867-4.225.922-7.354-2.773-2.752-2.95 4.409-4.245 5.14-1.664-8.816-4.612-7.9-6.83L1 1l13.598 10.8h9.55l11.208-1.384 7.9 2.647-7.9-2.647" stroke="#8EFBE6" stroke-width=".5" stroke-miterlimit="10"/><path d="M43.293 22.546l-15.055-6.957-16.067 2.06 2.215-6.275 13.852 4.215M28.93 28.131l5.445 19.95 8.918-3.712M36.91 52.07l6.383-7.98M33.894 23.343l-.177 2.87 9.576 12.292M16.96 26.535l-.798-2.394M36.11 54.465l-4.681 2.091-8.086.303M30.525 42.745l-3.094-.25-2.492 6.384M57.657 28.131v-6.384l7.98.765M43.293 56.859l7.328-2.555 3.046-6.223M53.666 48.08l2.216-4.895 1.703-15.054 3.263 5.264" stroke="#8EFBE6" stroke-width=".5" stroke-miterlimit="10"/><path d="M43.293 69.626L55.54 56.473l3.713-13.788-1.607-14.638-4.334-1.512M48.08 38.505h-4.787" stroke="#8EFBE6" stroke-width=".5" stroke-miterlimit="10"/><path d="M43.39 53.667l6.573-1.467 2.35-4.519-3.902-9.33 5.017-12.082-3.348-1.097-6.69-2.542 9.854.708 4.53-1.643.68-5.86-15.161-2.865M82.394 10.576l-10.374.798" stroke="#8EFBE6" stroke-width=".5" stroke-miterlimit="10"/><path d="M57.657 21.747l11.683 4.664 3.478 3.316" stroke="#8EFBE6" stroke-width=".5" stroke-miterlimit="10"/><path d="M42.495 80h1.568L63.54 57.295l-1.836-8.122-1.101-15.867 4.225.922 7.346-2.773 2.76-2.95-4.409-4.245-5.148-1.664 8.819-4.615 7.9-6.83L85.587 1 71.99 11.8h-9.552L51.23 10.415l-7.9 2.647 7.9-2.647" stroke="#8EFBE6" stroke-width=".5" stroke-miterlimit="10"/><path d="M57.657 28.131l-5.45 19.95-8.914-3.712M49.677 52.07l-6.384-7.98M52.693 23.343l.176 2.87-9.576 12.292M69.626 26.535l.798-2.394M50.475 54.465l4.682 2.091 8.085.303M56.06 42.745l3.092-.25 2.494 6.384M43.293 12.656v9.89l15.059-6.957 16.062 2.06-2.215-6.275-13.847 4.215M28.93 27.94l6.383 3.383-2.045-4.788-4.339 1.405zM53.284 26.535l-2.011 4.788 6.384-3.273-4.373-1.515z" stroke="#8EFBE6" stroke-width=".5" stroke-miterlimit="10"/></svg>