<svg width="45" height="79" fill="none" xmlns="http://www.w3.org/2000/svg"><path d="M11.823 24.565l-2.031.016-6.066 1.256L1 30.803l15.13 2.954 20.583-1.073 7.635-4.297-6.136-3.76-3.16-.243-1.708.013" stroke="#fff" stroke-width=".5" stroke-miterlimit="10" stroke-linecap="round" stroke-linejoin="round"/><path d="M44.348 28.386l-4.225 26.45-11.316 10.74-4.225 12.945-5.588-11.949-4.636-7.574-8.997-6.89L1 30.803l11.178 14.903" stroke="#fff" stroke-width=".5" stroke-miterlimit="10" stroke-linecap="round" stroke-linejoin="round"/><path d="M16.13 33.757l5.863 24.57-2.999 8.245" stroke="#fff" stroke-width=".5" stroke-miterlimit="10" stroke-linecap="round" stroke-linejoin="round"/><path d="M14.358 58.998l7.636-.67-9.816-12.622-6.817 6.402" stroke="#fff" stroke-width=".5" stroke-miterlimit="10" stroke-linecap="round" stroke-linejoin="round"/><path d="M21.993 58.328l6.814 7.249 9.61-21.817" stroke="#fff" stroke-width=".5" stroke-miterlimit="10" stroke-linecap="round" stroke-linejoin="round"/><path d="M24.582 78.52l8.316-9.319 7.225-14.365-3.41-22.152M10.918 26.848l4.007-10.102 3.364-.314L21.84 1l5.345 15.51 7.408 10.08-10.875 2.305-9.437-.28-3.361-1.767z" stroke="#fff" stroke-width=".5" stroke-miterlimit="10" stroke-linecap="round" stroke-linejoin="round"/><path d="M11 26.768l9.796-6.756-5.952-3.266" stroke="#fff" stroke-width=".5" stroke-miterlimit="10" stroke-linecap="round" stroke-linejoin="round"/><path d="M18.37 16.352l2.426 3.66 2.92 8.883 4.67-5.834 5.687 3.314M27.184 16.51l1.202 6.551" stroke="#fff" stroke-width=".5" stroke-miterlimit="10" stroke-linecap="round" stroke-linejoin="round"/></svg>