<svg version="1.1" id="Layer_1" xmlns="http://www.w3.org/2000/svg" x="0" y="0" viewBox="0 0 117 48.3" xml:space="preserve"><style>.st0{fill:#fff}</style><path class="st0" d="M9.2 19.3l7.1 3.9c.3.2.3.5 0 .7l-7.1 3.9c-.2.2-.3.2-.5.1l-7-3.9c-.3-.2-.3-.5 0-.7l7.1-3.9c.1-.1.2-.1.4-.1zM17.9 25.5v7.9c0 .1-.1.3-.2.3l-7.2 4c-.3.2-.6 0-.6-.3v-7.9c0-.1.1-.3.2-.3l7.2-4c.2-.2.6 0 .6.3zM19.9 34.2L10 39.7c-.1.1-.2.2-.2.3v7.9c0 .3.3.5.6.3l9.9-5.5c.1-.1.2-.2.2-.3v-7.9c0-.2-.4-.4-.6-.3zM0 33.3v-7.9c0-.3.3-.5.6-.3l7.2 4c.1.1.2.2.2.3v7.9c0 .3-.3.5-.6.3l-7.2-4c-.1 0-.2-.1-.2-.3zM0 36v7.9c0 .1.1.3.2.3l7.2 4c.3.2.6 0 .6-.3V40c0-.1-.1-.3-.2-.3l-7.2-4c-.3-.2-.6 0-.6.3zM40 35.7c.7.8 1 1.7 1 2.8 0 1-.2 1.8-.7 2.5-.5.7-1.2 1.3-2.1 1.7-.9.4-2 .6-3.2.6h-8V25.5h7.6c1.2 0 2.3.2 3.2.6.9.4 1.6.9 2.1 1.6.5.7.7 1.5.7 2.4 0 1-.3 1.9-.9 2.6-.6.7-1.3 1.2-2.3 1.5 1.1.2 1.9.7 2.6 1.5zm-9.3-2.8h3.4c.9 0 1.6-.2 2-.6.5-.4.7-.9.7-1.6 0-.7-.2-1.3-.7-1.7-.5-.4-1.2-.6-2-.6h-3.4v4.5zm5.8 6.9c.5-.4.8-1 .8-1.7 0-.8-.3-1.4-.8-1.8-.5-.4-1.2-.6-2.1-.6h-3.6v4.8h3.7c.8-.1 1.5-.3 2-.7zM43.2 32.4c.6-1.1 1.4-2 2.4-2.5 1-.6 2.1-.9 3.4-.9 1.1 0 2 .2 2.9.6.8.4 1.5 1 2 1.6v-2h3.7v14.1h-3.7v-2.1c-.5.7-1.1 1.2-2 1.6-.8.4-1.8.6-2.9.6-1.2 0-2.4-.3-3.4-.9-1-.6-1.8-1.5-2.4-2.6s-.9-2.4-.9-3.8c0-1.3.3-2.6.9-3.7zM53.3 34c-.4-.6-.8-1.1-1.4-1.4-.6-.3-1.2-.5-1.9-.5s-1.3.2-1.9.5c-.6.3-1.1.8-1.4 1.4-.4.6-.5 1.4-.5 2.2 0 .8.2 1.6.5 2.2.4.6.8 1.1 1.4 1.5.6.3 1.2.5 1.9.5s1.3-.2 1.9-.5c.6-.3 1.1-.8 1.4-1.4.4-.6.5-1.4.5-2.2.1-.9-.1-1.7-.5-2.3zM72.9 30.6c1.1 1.1 1.6 2.5 1.6 4.4v8.3h-3.7v-7.8c0-1.1-.3-2-.9-2.6-.6-.6-1.4-.9-2.4-.9s-1.8.3-2.4.9c-.6.6-.9 1.5-.9 2.6v7.8h-3.7V29.2h3.7V31c.5-.6 1.1-1.1 1.9-1.4.8-.3 1.6-.5 2.5-.5 1.8-.1 3.2.4 4.3 1.5zM77.3 32.4c.6-1.1 1.5-1.9 2.6-2.5 1.1-.6 2.3-.9 3.8-.9 1.8 0 3.3.4 4.5 1.3 1.2.9 2 2.1 2.4 3.7h-4c-.2-.6-.6-1.1-1.1-1.4-.5-.3-1.1-.5-1.9-.5-1.1 0-1.9.4-2.5 1.1-.6.7-.9 1.8-.9 3.1s.3 2.4.9 3.1 1.5 1.1 2.5 1.1c1.5 0 2.5-.6 2.9-1.9h4c-.4 1.5-1.2 2.7-2.4 3.6-1.2.9-2.7 1.3-4.5 1.3-1.4 0-2.7-.3-3.8-.9-1.1-.6-1.9-1.4-2.6-2.5-.6-1.1-.9-2.4-.9-3.8.1-1.5.4-2.8 1-3.9zM95.2 42.6c-1.1-.6-2-1.5-2.7-2.6-.6-1.1-1-2.4-1-3.8s.3-2.7 1-3.8c.7-1.1 1.6-2 2.7-2.6 1.1-.6 2.4-.9 3.8-.9s2.7.3 3.8.9c1.1.6 2 1.5 2.7 2.6.7 1.1 1 2.4 1 3.8s-.3 2.7-1 3.8c-.7 1.1-1.6 2-2.7 2.6-1.2.6-2.4.9-3.9.9-1.3 0-2.5-.3-3.7-.9zm5.7-2.6c.6-.3 1.1-.8 1.4-1.4.4-.6.5-1.4.5-2.3 0-1.3-.4-2.4-1.1-3.1-.7-.7-1.6-1.1-2.7-1.1s-1.9.4-2.7 1.1c-.7.7-1.1 1.8-1.1 3.1s.3 2.4 1 3.1c.7.7 1.6 1.1 2.6 1.1.9-.1 1.5-.2 2.1-.5zM114.3 29.6c.8-.4 1.6-.6 2.6-.6v3.7h-1c-1.2 0-2 .3-2.6.8-.6.5-.9 1.4-.9 2.8v7h-3.7V29.2h3.7v2.2c.5-.8 1.1-1.3 1.9-1.8zM32.8 11.3h-4.4v3h3.1c.1 0 .1 0 .1.1v.6c0 .1 0 .1-.1.1h-3.1v3.7c0 .1 0 .1-.1.1h-.6c-.1 0-.1 0-.1-.1v-8.2c0-.1 0-.1.1-.1h5.2c.1 0 .1 0 .1.1v.5c-.1.2-.1.2-.2.2zM34.5 18.6c-.4-.3-.7-.7-.9-1.2-.1-.4-.2-.9-.2-1.5s.1-1.1.2-1.5c.2-.5.4-.9.9-1.2.4-.3.9-.4 1.5-.4s1.1.1 1.5.4c.4.3.7.7.8 1.2.1.3.2.8.2 1.5 0 .6-.1 1.1-.2 1.5-.2.5-.4.9-.8 1.2-.4.3-.9.4-1.5.4-.6.1-1.1-.1-1.5-.4zm2.4-.6c.3-.2.5-.5.6-.9.1-.3.1-.7.1-1.2s0-.9-.1-1.2c-.1-.4-.3-.6-.6-.9s-.6-.3-1-.3-.7.1-1 .3-.5.5-.6.9c-.1.3-.1.7-.1 1.2s0 .9.1 1.2c.1.4.3.6.5.9.3.2.6.3 1 .3.5 0 .9-.1 1.1-.3zM44 12.9h.6c.1 0 .1 0 .1.1v5.8c0 .1 0 .1-.1.1H44c-.1 0-.1 0-.1-.1v-.5c-.3.5-.9.7-1.6.7-.4 0-.7-.1-1.1-.2-.3-.2-.6-.4-.8-.7-.2-.3-.3-.7-.3-1.1v-4c0-.1 0-.1.1-.1h.6c.1 0 .1 0 .1.1v3.8c0 .5.1.8.4 1.1.3.3.6.4 1 .4.5 0 .8-.1 1.1-.4s.4-.6.4-1.1V13c.1-.1.1-.1.2-.1zM50.7 13.4c.4.4.6.9.6 1.5v4c0 .1 0 .1-.1.1h-.6c-.1 0-.1 0-.1-.1V15c0-.4-.1-.8-.4-1.1-.3-.3-.6-.4-1-.4s-.8.1-1.1.4c-.3.3-.4.6-.4 1.1v3.8c0 .1 0 .1-.1.1h-.6c-.1 0-.1 0-.1-.1V13c0-.1 0-.1.1-.1h.6c.1 0 .1 0 .1.1v.5c.4-.5.9-.7 1.6-.7.6 0 1.1.2 1.5.6zM56.9 10.6h.6c.1 0 .1 0 .1.1v8.2c0 .1 0 .1-.1.1h-.6c-.1 0-.1 0-.1-.1v-.5c-.2.2-.4.4-.7.5-.3.1-.6.2-.9.2-.6 0-1-.1-1.4-.4s-.6-.7-.8-1.2c-.1-.4-.2-.9-.2-1.5 0-.7 0-1.2.1-1.5.1-.5.4-.9.8-1.2.4-.3.9-.4 1.4-.4.3 0 .6.1.9.2.3.1.5.3.7.5v-2.8c.1-.2.1-.2.2-.2zm-.2 6.2v-.9-.9c0-.2-.1-.4-.2-.6-.1-.3-.3-.5-.5-.7-.2-.2-.5-.2-.8-.2-.3 0-.6.1-.8.2-.2.2-.4.4-.5.6-.1.2-.2.4-.2.6 0 .2-.1.5-.1.9v.9c0 .2.1.4.2.6.1.3.3.5.5.7s.5.3.9.3c.3 0 .6-.1.8-.3.2-.2.4-.4.5-.7.1-.1.2-.3.2-.5zM64.3 15.7v.4c0 .1 0 .1-.1.1h-3.9c0 .4 0 .7.1.9.1.4.3.6.6.9s.7.3 1.1.3c.3 0 .6-.1.9-.2s.5-.4.6-.6c0-.1.1-.1.2 0l.5.3c.1 0 .1.1 0 .2-.2.4-.5.7-.9.9-.4.2-.9.3-1.4.3-.6 0-1-.1-1.4-.4-.4-.3-.7-.6-.8-1.1-.1-.4-.2-.9-.2-1.7v-.8c0-.2 0-.4.1-.6.1-.5.4-.9.8-1.2s.9-.5 1.5-.5c.7 0 1.3.2 1.7.6.4.4.6.9.7 1.6-.2 0-.1.3-.1.6zm-3.5-1.9c-.3.2-.4.5-.5.8 0 .2-.1.4-.1.8h3.1c0-.4 0-.6-.1-.8-.1-.4-.3-.6-.5-.9-.3-.2-.6-.3-1-.3-.3.1-.6.2-.9.4zM69.1 13c.1 0 .1.1.1.2l-.2.5c0 .1-.1.1-.2.1-.1-.1-.3-.1-.5-.1h-.2c-.4 0-.8.2-1 .5-.3.3-.4.7-.4 1.1v3.5c0 .1 0 .1-.1.1H66c-.1 0-.1 0-.1-.1V13c0-.1 0-.1.1-.1h.6c.1 0 .1 0 .1.1v.7c.2-.3.4-.5.6-.7.3-.2.6-.2.9-.2.5 0 .7.1.9.2zM71.1 18.8c-.3-.1-.6-.3-.8-.6-.2-.2-.3-.5-.3-.8v-.1c0-.1 0-.1.1-.1h.6c.1 0 .1 0 .1.1v.1c0 .3.1.5.4.7.3.2.6.3 1 .3s.8-.1 1-.3c.3-.2.4-.4.4-.7 0-.2-.1-.4-.2-.5s-.3-.2-.5-.3c-.2-.1-.5-.2-.8-.3-.4-.1-.8-.3-1.1-.4-.3-.1-.5-.3-.7-.5s-.3-.5-.3-.9c0-.5.2-.9.6-1.2.4-.3.9-.5 1.6-.5.4 0 .8.1 1.2.2.3.1.6.3.8.6.2.3.3.5.3.8 0 .1 0 .1-.1.1h-.6c-.1 0-.1 0-.1-.1 0-.3-.1-.5-.4-.7-.3-.2-.6-.3-1-.3s-.7.1-1 .2c-.2.2-.4.4-.4.7 0 .3.1.5.4.6s.6.3 1.1.4c.5.1.8.3 1.1.4.3.1.5.3.7.5s.3.5.3.9c0 .5-.2.9-.6 1.2s-1 .7-1.6.7c-.5 0-.9-.1-1.2-.2zM79.3 18.6c-.4-.3-.7-.7-.9-1.2-.1-.4-.2-.9-.2-1.5s.1-1.1.2-1.5c.2-.5.4-.9.9-1.2.4-.3.9-.4 1.5-.4s1.1.1 1.5.4c.4.3.7.7.8 1.2.1.3.2.8.2 1.5 0 .6-.1 1.1-.2 1.5-.2.5-.4.9-.8 1.2-.4.3-.9.4-1.5.4-.6.1-1.1-.1-1.5-.4zm2.5-.6c.3-.2.5-.5.6-.9.1-.3.1-.7.1-1.2s0-.9-.1-1.2c-.1-.4-.3-.6-.6-.9-.3-.2-.6-.3-1-.3s-.7.1-1 .3c-.3.2-.5.5-.6.9-.1.3-.1.7-.1 1.2s0 .9.1 1.2c.1.4.3.6.5.9.3.2.6.3 1 .3.5 0 .8-.1 1.1-.3zM86.4 11.6c-.2.2-.2.5-.2 1v.2h1.3c.1 0 .1 0 .1.1v.5c0 .1 0 .1-.1.1h-1.3v5.1c0 .1 0 .1-.1.1h-.6c-.1 0-.1 0-.1-.1v-5.1h-.8c-.1 0-.1 0-.1-.1V13c0-.1 0-.1.1-.1h.8v-.3c0-.5.1-.9.2-1.2.1-.3.3-.5.6-.6.3-.1.7-.2 1.2-.2h.3c.1 0 .1 0 .1.1v.5c0 .1 0 .1-.1.1h-.3c-.5 0-.8.1-1 .3z"/></svg>