<svg version="1.1" id="Layer_1" xmlns="http://www.w3.org/2000/svg" x="0" y="0" viewBox="0 0 264 24" xml:space="preserve"><style>.st0{fill:#fff}</style><g id="Search---DONE"><g id="logo"><g id="BRILLIANCEVENTURES" transform="translate(40)"><g id="BRILLIANCE"><path id="path-1" class="st0" d="M6.9 10.8c.8.3 1.4.7 1.9 1.3s.7 1.2.7 2c0 .9-.2 1.6-.6 2.2s-1 1-1.7 1.3-1.5.4-2.3.4H.7V4.1h3.6c1.4 0 2.5.3 3.3.9s1.2 1.5 1.2 2.6c0 .7-.2 1.4-.5 1.9-.3.6-.8 1-1.4 1.3zm-4.3-.6h2.1c.7 0 1.3-.2 1.6-.6s.6-1 .6-1.6c0-.7-.2-1.2-.7-1.6-.4-.3-1-.5-1.8-.5H2.6v4.3zm2.2 6.1c.8 0 1.5-.2 2-.5.5-.4.8-.9.8-1.6 0-.7-.3-1.3-.9-1.6-.6-.4-1.2-.6-2-.6H2.6v4.3h2.2zM20.3 18L17 12.9h-2.6V18h-1.9V4.1h3.7c.9 0 1.8.2 2.5.5s1.3.8 1.7 1.5c.4.6.6 1.4.6 2.3 0 .9-.2 1.6-.6 2.4s-1 1.3-1.7 1.6l3.5 5.6h-1.9zm-3.8-6.9c1 0 1.7-.3 2.2-.8.4-.5.7-1.1.7-1.8 0-.4-.1-.8-.3-1.2-.2-.4-.5-.7-.9-1-.4-.3-.9-.4-1.5-.4h-2.2v5.2h2zm10.7-7V18h-1.9V4.1h1.9zm5.8 0v12.1h7.1V18h-8.9V4.1H33zm12 0v12.1h7V18h-8.9V4.1H45zm11.9 0V18H55V4.1h1.9zm11.3 10.3h-5.3L61.4 18h-1.8l6.1-14.5h.1l6 14.5h-2.2l-1.4-3.6zm-.7-1.7l-2-5.1-2.1 5.1h4.1zm18.9-8.6v14.3h-.1L76.2 8.1V18h-1.9V3.7h.1l10.2 10.5v-10h1.8zM100.6 17c-.4.3-1 .6-1.7.8-.7.2-1.4.4-2.2.4-1.4 0-2.7-.3-3.8-.9-1.1-.6-1.9-1.5-2.5-2.5-.6-1.1-.9-2.2-.9-3.5 0-1.4.3-2.6.9-3.7.6-1.1 1.4-2 2.4-2.6s2.3-1 3.6-1c.8 0 1.5.1 2.2.3.7.2 1.3.5 1.8.8l-.7 1.7c-1.1-.7-2.1-1.1-3.2-1.1-.9 0-1.7.2-2.5.7-.8.5-1.4 1.1-1.8 1.9-.5.8-.7 1.7-.7 2.7 0 1 .2 1.9.6 2.7.4.8 1 1.4 1.8 1.9s1.7.7 2.7.7c1.2 0 2.3-.4 3.2-1.1l.8 1.8zm12.2-12.9v1.8h-7.2v4.2h6.4v1.8h-6.4v4.3h7.4V18h-9.3V4.1h9.1z"/><path id="path-1_1_" class="st0" d="M6.9 10.8c.8.3 1.4.7 1.9 1.3s.7 1.2.7 2c0 .9-.2 1.6-.6 2.2s-1 1-1.7 1.3-1.5.4-2.3.4H.7V4.1h3.6c1.4 0 2.5.3 3.3.9s1.2 1.5 1.2 2.6c0 .7-.2 1.4-.5 1.9-.3.6-.8 1-1.4 1.3zm-4.3-.6h2.1c.7 0 1.3-.2 1.6-.6s.6-1 .6-1.6c0-.7-.2-1.2-.7-1.6-.4-.3-1-.5-1.8-.5H2.6v4.3zm2.2 6.1c.8 0 1.5-.2 2-.5.5-.4.8-.9.8-1.6 0-.7-.3-1.3-.9-1.6-.6-.4-1.2-.6-2-.6H2.6v4.3h2.2zM20.3 18L17 12.9h-2.6V18h-1.9V4.1h3.7c.9 0 1.8.2 2.5.5s1.3.8 1.7 1.5c.4.6.6 1.4.6 2.3 0 .9-.2 1.6-.6 2.4s-1 1.3-1.7 1.6l3.5 5.6h-1.9zm-3.8-6.9c1 0 1.7-.3 2.2-.8.4-.5.7-1.1.7-1.8 0-.4-.1-.8-.3-1.2-.2-.4-.5-.7-.9-1-.4-.3-.9-.4-1.5-.4h-2.2v5.2h2zm10.7-7V18h-1.9V4.1h1.9zm5.8 0v12.1h7.1V18h-8.9V4.1H33zm12 0v12.1h7V18h-8.9V4.1H45zm11.9 0V18H55V4.1h1.9zm11.3 10.3h-5.3L61.4 18h-1.8l6.1-14.5h.1l6 14.5h-2.2l-1.4-3.6zm-.7-1.7l-2-5.1-2.1 5.1h4.1zm18.9-8.6v14.3h-.1L76.2 8.1V18h-1.9V3.7h.1l10.2 10.5v-10h1.8zM100.6 17c-.4.3-1 .6-1.7.8-.7.2-1.4.4-2.2.4-1.4 0-2.7-.3-3.8-.9-1.1-.6-1.9-1.5-2.5-2.5-.6-1.1-.9-2.2-.9-3.5 0-1.4.3-2.6.9-3.7.6-1.1 1.4-2 2.4-2.6s2.3-1 3.6-1c.8 0 1.5.1 2.2.3.7.2 1.3.5 1.8.8l-.7 1.7c-1.1-.7-2.1-1.1-3.2-1.1-.9 0-1.7.2-2.5.7-.8.5-1.4 1.1-1.8 1.9-.5.8-.7 1.7-.7 2.7 0 1 .2 1.9.6 2.7.4.8 1 1.4 1.8 1.9s1.7.7 2.7.7c1.2 0 2.3-.4 3.2-1.1l.8 1.8zm12.2-12.9v1.8h-7.2v4.2h6.4v1.8h-6.4v4.3h7.4V18h-9.3V4.1h9.1z"/></g><g id="VENTURES"><path id="path-2" class="st0" d="M131.4 3.9L125 18.7l-6.5-14.8h3.3l3.2 8 3-8h3.4zm12.1 0v2.7h-6.9v3h6.1v2.7h-6.1v3.1h7.1V18h-9.9V3.9h9.7zm15.9 0v14.7h-.1l-9.9-8.9.1 8.4h-2.8V3.3h.1l9.9 9.1-.1-8.5h2.8zm12.2 0v2.7h-3.4V18h-2.8V6.6h-3.3V3.9h9.5zm5.2 8.9c0 .4.1.9.4 1.3s.6.7 1.1 1c.4.3.9.4 1.4.4.6 0 1.1-.1 1.5-.4.5-.3.8-.6 1.1-1s.4-.8.4-1.3V3.9h2.7v9c0 1-.3 1.9-.8 2.7-.5.8-1.2 1.4-2.1 1.9s-1.8.7-2.9.7-2-.2-2.9-.7-1.6-1.1-2.1-1.9c-.5-.8-.8-1.7-.8-2.7v-9h2.8v8.9zm19.6 5.2l-3-4.5h-1.9V18h-2.8V3.9h4.3c1.8 0 3.1.4 4.1 1.3 1 .9 1.4 2 1.4 3.5 0 .9-.2 1.7-.5 2.4-.4.8-.9 1.4-1.7 1.8l3.3 5.1h-3.2zm-4.8-7.2h2c.8 0 1.3-.2 1.7-.7.3-.4.5-.9.5-1.4 0-.5-.1-1-.4-1.5-.3-.5-.9-.7-1.7-.7h-2v4.3zm20-6.9v2.7h-6.9v3h6.1v2.7h-6.1v3.1h7.1V18H202V3.9h9.6zm10.7 3.4c-1.2-.7-2.3-1-3.2-1-.6 0-1.1.1-1.4.4-.3.2-.5.6-.5 1.1 0 .4.2.8.7 1.2.5.3 1.1.7 2 1 .7.2 1.2.5 1.7.8.5.3.9.7 1.2 1.3.3.6.5 1.2.5 2.1 0 .7-.2 1.4-.6 2-.4.6-.9 1.1-1.7 1.5s-1.6.5-2.6.5c-.8 0-1.7-.1-2.5-.4s-1.6-.6-2.3-1.1l1.2-2.2c.5.4 1 .7 1.7.9.6.2 1.2.3 1.7.3.6 0 1.1-.1 1.5-.4.4-.2.7-.7.7-1.2 0-.7-.7-1.4-2.1-1.9-.8-.3-1.5-.6-2-.9s-1-.7-1.4-1.3c-.4-.6-.6-1.2-.6-2.1 0-1.2.4-2.2 1.2-2.9s1.9-1.1 3.2-1.2c1 0 1.9.1 2.6.4.7.2 1.4.6 2.1 1l-1.1 2.1z"/><path id="path-2_1_" class="st0" d="M131.4 3.9L125 18.7l-6.5-14.8h3.3l3.2 8 3-8h3.4zm12.1 0v2.7h-6.9v3h6.1v2.7h-6.1v3.1h7.1V18h-9.9V3.9h9.7zm15.9 0v14.7h-.1l-9.9-8.9.1 8.4h-2.8V3.3h.1l9.9 9.1-.1-8.5h2.8zm12.2 0v2.7h-3.4V18h-2.8V6.6h-3.3V3.9h9.5zm5.2 8.9c0 .4.1.9.4 1.3s.6.7 1.1 1c.4.3.9.4 1.4.4.6 0 1.1-.1 1.5-.4.5-.3.8-.6 1.1-1s.4-.8.4-1.3V3.9h2.7v9c0 1-.3 1.9-.8 2.7-.5.8-1.2 1.4-2.1 1.9s-1.8.7-2.9.7-2-.2-2.9-.7-1.6-1.1-2.1-1.9c-.5-.8-.8-1.7-.8-2.7v-9h2.8v8.9zm19.6 5.2l-3-4.5h-1.9V18h-2.8V3.9h4.3c1.8 0 3.1.4 4.1 1.3 1 .9 1.4 2 1.4 3.5 0 .9-.2 1.7-.5 2.4-.4.8-.9 1.4-1.7 1.8l3.3 5.1h-3.2zm-4.8-7.2h2c.8 0 1.3-.2 1.7-.7.3-.4.5-.9.5-1.4 0-.5-.1-1-.4-1.5-.3-.5-.9-.7-1.7-.7h-2v4.3zm20-6.9v2.7h-6.9v3h6.1v2.7h-6.1v3.1h7.1V18H202V3.9h9.6zm10.7 3.4c-1.2-.7-2.3-1-3.2-1-.6 0-1.1.1-1.4.4-.3.2-.5.6-.5 1.1 0 .4.2.8.7 1.2.5.3 1.1.7 2 1 .7.2 1.2.5 1.7.8.5.3.9.7 1.2 1.3.3.6.5 1.2.5 2.1 0 .7-.2 1.4-.6 2-.4.6-.9 1.1-1.7 1.5s-1.6.5-2.6.5c-.8 0-1.7-.1-2.5-.4s-1.6-.6-2.3-1.1l1.2-2.2c.5.4 1 .7 1.7.9.6.2 1.2.3 1.7.3.6 0 1.1-.1 1.5-.4.4-.2.7-.7.7-1.2 0-.7-.7-1.4-2.1-1.9-.8-.3-1.5-.6-2-.9s-1-.7-1.4-1.3c-.4-.6-.6-1.2-.6-2.1 0-1.2.4-2.2 1.2-2.9s1.9-1.1 3.2-1.2c1 0 1.9.1 2.6.4.7.2 1.4.6 2.1 1l-1.1 2.1z"/></g></g><g id="_x35_533"><path id="Path" class="st0" d="M12 12l12 12H0z"/><path id="Path_1_" class="st0" d="M24 0L12 12 6 6l6-6z"/><path id="Path_2_" class="st0" d="M12 12L0 24V12l6-6z"/><path id="Path_3_" class="st0" d="M24 0v24L12 12z"/></g></g></g></svg>