<svg id="Kenetic_Logo_Black" data-name="Kenetic Logo Black" xmlns="http://www.w3.org/2000/svg" viewBox="0 0 778.41 219.79"><defs><style>.cls-1{fill:#fff}</style></defs><circle class="cls-1" cx="165.42" cy="164.34" r="4.26" transform="rotate(-45 165.425 164.349)"/><circle class="cls-1" cx="157.19" cy="156.11" r="3.65" transform="rotate(-45 157.196 156.117)"/><circle class="cls-1" cx="149.82" cy="148.74" r="3.04" transform="rotate(-45 149.825 148.75)"/><circle class="cls-1" cx="143.32" cy="142.24" r="2.43" transform="rotate(-45 143.316 142.236)"/><circle class="cls-1" cx="137.67" cy="136.59" r="1.82" transform="rotate(-45 137.666 136.587)"/><circle class="cls-1" cx="132.88" cy="131.8" r="1.22" transform="rotate(-45 132.874 131.802)"/><circle class="cls-1" cx="128.95" cy="127.87" r=".61" transform="rotate(-45 128.945 127.87)"/><circle class="cls-1" cx="122.87" cy="121.79" r="3.04" transform="rotate(-45 122.866 121.787)"/><circle class="cls-1" cx="56" cy="54.92" r="4.26" transform="rotate(-45 55.997 54.915)"/><circle class="cls-1" cx="64.23" cy="63.15" r="3.65" transform="rotate(-45 64.226 63.147)"/><circle class="cls-1" cx="71.59" cy="70.51" r="3.04" transform="rotate(-45 71.598 70.513)"/><circle class="cls-1" cx="78.1" cy="77.02" r="2.43" transform="rotate(-45 78.106 77.028)"/><circle class="cls-1" cx="83.75" cy="82.67" r="1.82" transform="rotate(-45 83.756 82.677)"/><circle class="cls-1" cx="88.54" cy="87.46" r="1.22" transform="rotate(-45 88.548 87.462)"/><circle class="cls-1" cx="92.47" cy="91.39" r=".61" transform="rotate(-45 92.477 91.395)"/><circle class="cls-1" cx="98.55" cy="97.47" r="3.04" transform="rotate(-45 98.556 97.477)"/><circle class="cls-1" cx="56" cy="164.34" r="4.26" transform="rotate(-45 55.994 164.346)"/><circle class="cls-1" cx="64.23" cy="156.11" r="3.65" transform="rotate(-45 64.226 156.117)"/><circle class="cls-1" cx="71.59" cy="148.74" r="3.04" transform="rotate(-45 71.592 148.745)"/><circle class="cls-1" cx="78.1" cy="142.24" r="2.43" transform="rotate(-45 78.107 142.237)"/><circle class="cls-1" cx="83.75" cy="136.59" r="1.82" transform="rotate(-45 83.756 136.587)"/><circle class="cls-1" cx="88.54" cy="131.8" r="1.22" transform="rotate(-45 88.541 131.795)"/><circle class="cls-1" cx="92.47" cy="127.87" r=".61" transform="rotate(-45 92.474 127.866)"/><circle class="cls-1" cx="98.55" cy="121.79" r="3.04" transform="rotate(-45 98.556 121.787)"/><circle class="cls-1" cx="165.42" cy="54.92" r="4.26" transform="rotate(-45 165.428 54.918)"/><circle class="cls-1" cx="157.19" cy="63.15" r="3.65" transform="rotate(-45 157.196 63.147)"/><circle class="cls-1" cx="149.82" cy="70.51" r="3.04" transform="rotate(-45 149.83 70.518)"/><circle class="cls-1" cx="143.32" cy="77.02" r="2.43" transform="rotate(-45 143.316 77.027)"/><circle class="cls-1" cx="137.67" cy="82.67" r="1.82" transform="rotate(-45 137.666 82.677)"/><circle class="cls-1" cx="132.88" cy="87.46" r="1.22" transform="rotate(-45 132.88 87.469)"/><circle class="cls-1" cx="128.95" cy="91.39" r=".61" transform="rotate(-45 128.948 91.398)"/><circle class="cls-1" cx="122.87" cy="97.47" r="3.04" transform="rotate(-45 122.866 97.477)"/><circle class="cls-1" cx="98.55" cy="109.63" r="3.04"/><circle class="cls-1" cx="122.87" cy="109.63" r="3.04"/><circle class="cls-1" cx="56" cy="109.63" r="4.26"/><circle class="cls-1" cx="67.85" cy="109.63" r="3.65" transform="rotate(-45 67.852 109.635)"/><circle class="cls-1" cx="78.49" cy="109.63" r="3.04" transform="rotate(-45 78.49 109.629)"/><circle class="cls-1" cx="87.91" cy="109.63" r="2.43" transform="rotate(-45 87.909 109.627)"/><circle class="cls-1" cx="165.42" cy="109.63" r="4.26"/><circle class="cls-1" cx="153.57" cy="109.63" r="3.65" transform="rotate(-45 153.57 109.63)"/><circle class="cls-1" cx="142.93" cy="109.63" r="3.04" transform="rotate(-45 142.932 109.635)"/><circle class="cls-1" cx="133.51" cy="109.63" r="2.43" transform="rotate(-45 133.501 109.632)"/><circle class="cls-1" cx="110.71" cy="121.79" r="3.04"/><circle class="cls-1" cx="110.71" cy="97.47" r="3.04"/><circle class="cls-1" cx="110.71" cy="164.34" r="4.26"/><circle class="cls-1" cx="110.71" cy="152.49" r="3.65" transform="rotate(-45 110.714 152.49)"/><circle class="cls-1" cx="110.71" cy="141.85" r="3.04" transform="rotate(-45 110.708 141.853)"/><circle class="cls-1" cx="110.71" cy="132.43" r="2.43" transform="rotate(-45 110.711 132.422)"/><circle class="cls-1" cx="110.71" cy="54.92" r="4.26"/><circle class="cls-1" cx="110.71" cy="66.77" r="3.65" transform="rotate(-45 110.708 66.773)"/><circle class="cls-1" cx="110.71" cy="77.41" r="3.04" transform="rotate(-45 110.715 77.41)"/><circle class="cls-1" cx="110.71" cy="86.83" r="2.43" transform="rotate(-45 110.716 86.83)"/><circle class="cls-1" cx="83.35" cy="54.92" r="4.26" transform="rotate(-26.6 83.363 54.926)"/><circle class="cls-1" cx="88.43" cy="65.06" r="3.65" transform="rotate(-71.6 88.431 65.054)"/><circle class="cls-1" cx="92.96" cy="74.11" r="3.04" transform="rotate(-71.6 92.966 74.11)"/><circle class="cls-1" cx="96.95" cy="82.07" r="2.43" transform="rotate(-71.6 96.95 82.073)"/><circle class="cls-1" cx="100.4" cy="88.95" r="1.82" transform="rotate(-71.6 100.397 88.954)"/><circle class="cls-1" cx="138.09" cy="54.92" r="4.26" transform="rotate(-63.4 138.087 54.92)"/><circle class="cls-1" cx="133.01" cy="65.06" r="3.65" transform="rotate(-18.4 133.006 65.072)"/><circle class="cls-1" cx="128.48" cy="74.11" r="3.04" transform="rotate(-18.2 127.243 72.444)"/><circle class="cls-1" cx="124.49" cy="82.07" r="2.43" transform="rotate(-18.4 124.488 82.067)"/><circle class="cls-1" cx="121.04" cy="88.95" r="1.82" transform="rotate(-18.4 121.06 88.956)"/><circle class="cls-1" cx="83.35" cy="164.33" r="4.26" transform="rotate(-63.4 83.35 164.334)"/><circle class="cls-1" cx="88.43" cy="154.19" r="3.65" transform="rotate(-18.4 88.443 154.195)"/><circle class="cls-1" cx="92.96" cy="145.14" r="3.04" transform="rotate(-18.4 92.952 145.136)"/><circle class="cls-1" cx="96.95" cy="137.18" r="2.43" transform="rotate(-18.4 96.966 137.17)"/><circle class="cls-1" cx="100.4" cy="130.3" r="1.82" transform="rotate(-18.4 100.39 130.31)"/><circle class="cls-1" cx="138.09" cy="164.33" r="4.26" transform="rotate(-26.6 138.082 164.32)"/><circle class="cls-1" cx="133.01" cy="154.19" r="3.65" transform="rotate(-71.6 133.01 154.189)"/><circle class="cls-1" cx="128.48" cy="145.14" r="3.04" transform="rotate(-71.6 128.478 145.145)"/><circle class="cls-1" cx="124.49" cy="137.18" r="2.43" transform="rotate(-71.6 124.488 137.176)"/><circle class="cls-1" cx="121.04" cy="130.3" r="1.82" transform="rotate(-71.6 121.047 130.3)"/><circle class="cls-1" cx="56.01" cy="136.99" r="4.26" transform="rotate(-26.6 56.013 136.99)"/><circle class="cls-1" cx="66.15" cy="131.91" r="3.65" transform="rotate(-71.6 66.155 131.917)"/><circle class="cls-1" cx="75.2" cy="127.38" r="3.04" transform="rotate(-71.6 75.204 127.378)"/><circle class="cls-1" cx="83.17" cy="123.39" r="2.43" transform="rotate(-71.6 83.167 123.394)"/><circle class="cls-1" cx="90.05" cy="119.95" r="1.82" transform="rotate(-71.6 90.048 119.947)"/><circle class="cls-1" cx="56.01" cy="82.26" r="4.26" transform="rotate(-63.4 56.012 82.259)"/><circle class="cls-1" cx="66.15" cy="87.34" r="3.65" transform="rotate(-18.4 66.163 87.352)"/><circle class="cls-1" cx="75.2" cy="91.87" r="3.04" transform="rotate(-18.4 75.222 91.86)"/><circle class="cls-1" cx="83.17" cy="95.86" r="2.43" transform="rotate(-18.4 83.158 95.87)"/><circle class="cls-1" cx="90.05" cy="99.3" r="1.82" transform="rotate(-18.4 90.048 99.299)"/><circle class="cls-1" cx="165.43" cy="136.99" r="4.26" transform="rotate(-63.4 165.425 136.995)"/><circle class="cls-1" cx="155.29" cy="131.91" r="3.65" transform="rotate(-18.4 155.286 131.915)"/><circle class="cls-1" cx="146.24" cy="127.38" r="3.04" transform="rotate(-18.4 146.232 127.376)"/><circle class="cls-1" cx="138.27" cy="123.39" r="2.43" transform="rotate(-18.4 138.26 123.392)"/><circle class="cls-1" cx="131.39" cy="119.95" r="1.82" transform="rotate(-18.4 131.407 119.937)"/><circle class="cls-1" cx="165.43" cy="82.26" r="4.26" transform="rotate(-26.6 165.432 82.255)"/><circle class="cls-1" cx="155.29" cy="87.34" r="3.65" transform="rotate(-71.6 155.29 87.338)"/><circle class="cls-1" cx="146.24" cy="91.87" r="3.04" transform="rotate(-71.6 146.238 91.865)"/><circle class="cls-1" cx="138.27" cy="95.86" r="2.43" transform="rotate(-71.6 138.27 95.856)"/><circle class="cls-1" cx="131.39" cy="99.3" r="1.82" transform="rotate(-71.6 131.394 99.296)"/><path class="cls-1" d="M234.24 110.2l-17.7 18V160h-12V61h12v51l49.8-51h15.75l-39.45 40.35 39.9 58.65h-14.4zM353.64 127h-56.55q1 11.4 7.57 17.7t16.88 6.3q8.25 0 13.73-2.85a14.78 14.78 0 007.42-8.25l10.05 5.25a31.15 31.15 0 01-12 12.15q-7.5 4.2-19.2 4.2-17 0-26.62-10.35t-9.67-28.65q0-18.3 9.22-28.65t26.17-10.35a34.28 34.28 0 0118.15 4.65 29.89 29.89 0 0111.55 12.6 40 40 0 013.9 17.85 59.54 59.54 0 01-.6 8.4zm-49-27.15q-6.07 5.85-7.42 16.5h45.45q-1.2-10.5-6.9-16.42T320.64 94q-9.9 0-15.98 5.85zM430 90.85q8.25 7.35 8.25 21.15v48h-12v-43.8q0-11.7-5-17T407.79 94a24.84 24.84 0 00-11.25 2.63 20.55 20.55 0 00-8.62 8.55q-3.37 5.93-3.37 14.92V160h-12V85H383l.75 11.7a23.44 23.44 0 0110.35-10 33.4 33.4 0 0114.9-3.2q12.74 0 21 7.35zM524.63 127h-56.54q1 11.4 7.57 17.7t16.88 6.3q8.25 0 13.72-2.85a14.77 14.77 0 007.43-8.25l10 5.25a31.14 31.14 0 01-12 12.15q-7.5 4.2-19.2 4.2-17 0-26.62-10.35t-9.68-28.65q0-18.3 9.23-28.65t26.21-10.35a34.29 34.29 0 0118.15 4.65 29.9 29.9 0 0111.55 12.6 40 40 0 013.9 17.85 59.54 59.54 0 01-.6 8.4zm-49-27.15q-6.08 5.85-7.43 16.5h45.45q-1.2-10.5-6.9-16.42T491.63 94q-9.89 0-15.97 5.85zM587.18 154.75q-7.5 6.75-19.35 6.75-9.15 0-14.92-5T547 141.4V95.35h-15V85h15V67l12-3.3V85h27.75v10.35H559v44q0 5.4 3.07 8.17a11.73 11.73 0 008.18 2.78 17.53 17.53 0 0012.75-5.6zM599.11 68.13a8.83 8.83 0 01-2.47-6.53 9 9 0 1118 0 9.23 9.23 0 01-15.53 6.53zM611.63 160h-12V85h12zM685.66 88.67a34.3 34.3 0 0112.08 14.78l-11.4 5.4Q681.53 94 666.38 94q-11.25 0-17.62 7.58t-6.37 20.92q0 13.35 6.38 20.92t17.61 7.58q8.7 0 14-4a18.73 18.73 0 007-11.48l11.1 3.9a33.8 33.8 0 01-12 16.27q-8.1 5.78-19.8 5.78-17 0-26.62-10.35t-9.68-28.65q0-18.3 9.68-28.65t26.62-10.32q11.25 0 18.98 5.17z"/></svg>