<svg version="1.1" id="Layer_1" xmlns="http://www.w3.org/2000/svg" x="0" y="0" viewBox="0 0 227 34" xml:space="preserve"><style>.st0{fill:#fff}</style><path class="st0" d="M121.2 22c-.3 1-.7 1.9-1.1 2.8-.1.3-.3.5-.4.8-.8 1.1-2.2 1.9-3.7 1.9-1.3 0-2.6-.6-3.4-1.5-.1 0-.1-.1-.1-.1-.8-.9-2-1.5-3.4-1.5-.3 0-.6 0-.9.1v9.3c-1 .2-2.1.3-3.1.3-9.4 0-16.9-7.6-16.9-17s7.5-17 16.9-17c1.8 0 3.5.3 5.1.8l-5 5 3.1 3.1 10.8 10.8.4.4 1.7 1.8zM0 21.8l1.6-.8c.8 1.9 2.8 3 5.2 3 2.7 0 4.7-1.4 4.7-3.8 0-2.6-2.3-3.1-4.8-3.6C3.8 16 .5 15.1.5 11.3.5 8.3 3.3 6 6.7 6 9.5 6 12 7.3 13 9.9l-1.5.8c-.9-1.9-2.6-2.9-4.8-2.9-2.3 0-4.2 1.5-4.2 3.5 0 2.6 2.4 3.1 4.9 3.6 2.9.6 6.2 1.5 6.2 5.4-.1 3.4-3 5.6-6.6 5.6-3.2-.2-5.9-1.6-7-4.1zM16.6 25.5V6.2h1.8V15h11.5V6.2h1.8v19.4h-1.8v-8.8H18.5v8.8l-1.9-.1zM38.3 6.2v19.4h-1.8V6.2h1.8zM41.6 25.5L44.4 8c.2-1.4 1.2-2.1 2.5-2.1 1.1 0 2.1.5 2.4 1.8l4.1 14.7c.1.4.2.6.4.6s.3-.2.4-.6l4.1-14.6c.3-1.2 1.3-1.8 2.4-1.8 1.2 0 2.2.7 2.4 2.2l2.5 17.4H64L61.6 8.5c-.1-.6-.2-1-.8-1-.4 0-.7.3-.8.9l-4.3 14.7c-.2.9-1 1.4-1.8 1.4s-1.6-.4-1.8-1.3L47.8 8.4c-.2-.6-.4-.9-.8-.9s-.7.3-.8 1l-2.6 17h-2zM72.7 8.2c.5-1.6 1.6-2.3 3.1-2.3 1.4 0 2.6.7 3.1 2.3l5.4 17.3h-1.9l-1.6-5.4h-10l-1.7 5.3h-1.9l5.5-17.2zm-1.4 10.2h8.9l-3-9.7c-.2-.7-.6-1.1-1.4-1.1-.8 0-1.2.4-1.5 1.2l-3 9.6zM125 15.8c0-5.5 4.3-9.9 9.6-9.9 3.3 0 6.1 1.6 7.7 4.3l-1.5.9c-1.3-2.1-3.6-3.5-6.2-3.5-4.2 0-7.7 3.6-7.7 8.2 0 4.7 3.5 8.3 7.7 8.3 2.6 0 4.9-1.3 6.2-3.4l1.5.9c-1.5 2.7-4.4 4.3-7.7 4.3-5.3-.1-9.6-4.5-9.6-10.1zM147.8 8.2c.5-1.6 1.6-2.3 3.1-2.3s2.6.7 3.1 2.3l5.4 17.3h-1.9l-1.6-5.4h-10l-1.7 5.3h-1.9l5.5-17.2zm-1.4 10.2h8.9l-3-9.7c-.2-.8-.7-1.2-1.5-1.2s-1.2.4-1.5 1.2l-2.9 9.7zM162.2 25.5V6.2h5.6c4.9 0 8.3 2.2 8.3 6.7 0 4.7-3.5 6.7-8.2 6.7H164v6l-1.8-.1zM164 7.9v9.9h3.8c3.6 0 6.4-1.4 6.4-5 0-3.4-2.6-4.9-6.4-4.9H164zM180.5 6.2v19.4h-1.8V6.2h1.8zM196.5 7.9h-6.2v17.6h-1.8V7.9h-6.1V6.2h14.1v1.7zM200.7 8.2c.5-1.6 1.6-2.3 3.1-2.3s2.6.7 3.1 2.3l5.4 17.3h-1.9l-1.6-5.4h-10l-1.7 5.4h-1.9l5.5-17.3zm-1.4 10.2h8.9l-3-9.7c-.2-.8-.7-1.2-1.5-1.2s-1.2.4-1.5 1.2l-2.9 9.7zM216.9 23.8H227v1.7h-10.1c-1.4 0-1.8-.7-1.8-1.8V6.2h1.8v17.6z"/></svg>