<svg version="1.1" id="Layer_1" xmlns="http://www.w3.org/2000/svg" x="0" y="0" viewBox="0 0 211 16" xml:space="preserve"><style>.st0{fill:#fff}</style><path class="st0" d="M20.3 7.2c-.9-.9-2-1.3-3.2-1.3H4.6c-.3 0-.4-.1-.6-.2-.2-.2-.3-.4-.3-.6v-1c0-.2.1-.4.2-.6.2-.2.4-.2.6-.2H20.7V.2.1H4.6C3.3 0 2.2.4 1.3 1.3.4 2.2 0 3.3 0 4.5v.2C0 5.9.4 7 1.3 7.9c.9.9 2 1.3 3.2 1.3H17c.2 0 .4.1.6.2.2.2.2.4.2.6v1c0 .2-.1.4-.2.6-.2.2-.4.2-.6.2H1 .9V15H17.1c1.3 0 2.3-.4 3.2-1.3.9-.9 1.3-1.9 1.3-3.2v-.2c0-1.1-.4-2.2-1.3-3.1zM47.4 0h-3.5-.1v4c0 .3-.2.6-.5.8l-7 2.9-7-2.9c-.3-.3-.5-.5-.5-.8V.1 0h-3.6-.1v4.5c0 .7.2 1.3.5 1.8.4.5.9.9 1.5 1.2l7.3 3.1v4.5h3.7v-4.5l7.3-3.1c.6-.3 1.1-.7 1.5-1.2.4-.5.5-1.1.5-1.8V.1c.1 0 .1 0 0-.1.1 0 0 0 0 0zM73.4 0h-3.5-.1V11.8h-1.5c-.3 0-.5-.1-.7-.4l-6.8-9.9c-.7-1-1.7-1.5-3-1.6H52h-.1v15.2h3.7V3.3H57c.3 0 .5.1.7.4l6.8 9.9c.7 1 1.7 1.5 3 1.6H73.4V.1c.1 0 .1 0 0-.1zM98.6 0H77.2h-.1v3.2H86v11.9h3.7V3.3h8.9V.2c.1-.1.1-.1 0-.2.1 0 0 0 0 0zM124.5 0H121h-.1V5.9h-14.2V.1 0h-3.6-.1v15.1h3.7V9.2h14.2V15.1h3.7V.1c.1 0 .1 0-.1-.1.1 0 .1 0 0 0zM150.4 0h-16.9c-1.3 0-2.3.4-3.2 1.3-.9.9-1.3 1.9-1.3 3.2v6.1c0 1.3.4 2.3 1.3 3.2.9.9 2 1.3 3.2 1.3h17V12v-.1h-17c-.2 0-.4-.1-.6-.2-.2-.2-.2-.4-.2-.6V9.2H150.6V6v-.1H132.7V4.1c0-.2.1-.4.2-.6.2-.2.4-.2.6-.2h17V.2c0-.1 0-.1-.1-.2zM176.2 0h-21.4-.1v3.2h8.9v11.9h3.7V3.3h8.9V.2c.1-.1.1-.1 0-.2.1 0 0 0 0 0zM184.3 0h-3.6-.1v15.1h3.7V0c.1.1.1.1 0 0zM194 3.7c-.2-.2-.3-.3-.6-.3h-4.5-.1V.3.2H193.7c1.2 0 2.3.5 3.1 1.5L198 3l-2.3 2.7-1.7-2zm8.4-2.1c.9-1 1.9-1.5 3.1-1.5H210.4v3.2h-4.6c-.2 0-.4.1-.6.3l-3.3 4 3.4 4.1c.2.2.3.2.5.2h4.6v3.2H205.5c-1.2 0-2.3-.5-3.1-1.5l-2.8-3.4-2.8 3.4c-.9 1-1.9 1.5-3.1 1.5h-4.8-.1V12v-.1h4.6c.2 0 .4-.1.6-.3l3.3-4 5.1-6z"/></svg>